<svg aria-hidden="true" style="position: absolute; width: 0; height: 0; overflow: hidden;" version="1.1" xmlns="http://www.w3.org/2000/svg" xmlns:xlink="http://www.w3.org/1999/xlink">
<defs>
<symbol id="icon-heart" viewBox="0 0 32 32">
<title>heart</title>
<path d="M28.667 5.2v0c-1.6-1.6-3.733-2.533-6-2.533v0c-2.267 0-4.533 0.933-6.133 2.533 0 0 0 0 0 0l-0.533 0.533-0.533-0.533c-1.6-1.6-3.733-2.533-6.133-2.533-2.267 0-4.4 0.933-6 2.533s-2.667 3.867-2.667 6.133 0.933 4.533 2.533 6.133l11.733 11.733c0.267 0.267 0.533 0.4 0.933 0.4s0.667-0.133 0.933-0.4l11.733-11.733c3.6-3.333 3.6-8.933 0.133-12.267zM26.8 15.6l-10.8 10.8-10.8-10.8c-2.4-2.4-2.4-6.133 0-8.533 1.067-1.2 2.667-1.733 4.133-1.733 1.6 0 3.067 0.533 4.267 1.733l1.467 1.467c0.533 0.533 1.333 0.533 1.867 0l1.333-1.467c0 0 0 0 0 0 1.2-1.067 2.667-1.733 4.4-1.733 0 0 0 0 0 0 1.6 0 3.067 0.667 4.267 1.733v0c1.067 1.2 1.733 2.667 1.733 4.267s-0.667 3.067-1.867 4.267z"></path>
</symbol>
<symbol id="icon-inbox" viewBox="0 0 32 32">
<title>inbox</title>
<path d="M26 1c0-0.552-0.447-1-1-1h-18c-0.552 0-1 0.448-1 1l-6 15v14c0 1.104 0.896 2 2 2h28c1.104 0 2-0.896 2-2v-14l-6-15zM23 16l-3 5c0 0.553-0.447 1-1 1h-6c-0.553 0-1-0.447-1-1l-3-5h-5l5.143-12h13.715l5.142 12h-5z"></path>
</symbol>
<symbol id="icon-Profile" viewBox="0 0 32 32">
<title>Profile</title>
<path d="M16 0c8.839 0 16 7.161 16 16 0 8.786-7.125 16-16 16-8.857 0-16-7.197-16-16 0-8.839 7.161-16 16-16zM27.054 24.125c1.661-2.286 2.661-5.089 2.661-8.125 0-7.553-6.161-13.714-13.714-13.714s-13.714 6.161-13.714 13.714c0 3.035 1 5.839 2.661 8.125 0.642-3.197 2.197-5.839 5.464-5.839 1.447 1.41 3.41 2.286 5.59 2.286s4.143-0.875 5.59-2.286c3.267 0 4.822 2.642 5.464 5.839zM22.857 12.571c0-3.786-3.072-6.857-6.857-6.857s-6.857 3.072-6.857 6.857 3.072 6.857 6.857 6.857 6.857-3.072 6.857-6.857z"></path>
</symbol>
</defs>
</svg>
